<?xml version="1.0" standalone="no"?>
<!DOCTYPE svg PUBLIC "-//W3C//DTD SVG 20010904//EN"
 "http://www.w3.org/TR/2001/REC-SVG-20010904/DTD/svg10.dtd">
<svg version="1.0" xmlns="http://www.w3.org/2000/svg"
 width="522.000000pt" height="522.000000pt" viewBox="0 0 522.000000 522.000000"
 preserveAspectRatio="xMidYMid meet">
<metadata>
Created by potrace 1.14, written by Peter Selinger 2001-2017
</metadata>
<g transform="translate(0.000000,522.000000) scale(0.100000,-0.100000)"
fill="#000000" stroke="none">
<path d="M20 2610 l0 -2600 2600 0 2600 0 0 2600 0 2600 -2600 0 -2600 0 0
-2600z m5075 0 l0 -2475 -2475 0 -2475 0 -3 2465 c-1 1356 0 2471 3 2478 3 10
504 12 2477 10 l2473 -3 0 -2475z"/>
<path d="M1147 3643 c-3 -5 -181 -456 -397 -1003 -216 -547 -401 -1016 -411
-1043 l-19 -47 222 2 223 3 86 225 86 225 434 0 434 0 86 -225 87 -225 222 -3
c133 -1 220 1 218 7 -1 5 -187 477 -413 1050 l-410 1041 -222 0 c-122 0 -224
-3 -226 -7z m373 -893 c77 -200 138 -365 136 -367 -2 -2 -131 -2 -288 -1
l-286 3 134 350 c150 392 155 404 161 389 2 -6 66 -174 143 -374z"/>
<path d="M2670 2600 l0 -1050 205 0 205 0 2 717 3 718 316 -460 c173 -252 320
-460 325 -462 6 -2 152 204 325 458 l314 462 3 -717 2 -716 210 0 210 0 0
1050 0 1050 -227 0 -228 -1 -300 -445 c-165 -245 -302 -447 -305 -449 -3 -1
-140 198 -306 444 l-300 446 -227 3 -227 2 0 -1050z"/>
</g>
</svg>
